<svg width="257" height="351" viewBox="0 0 257 351" fill="none" xmlns="http://www.w3.org/2000/svg">
<rect x="0.5" width="256" height="351" rx="30" fill="#243139"/>
<path d="M88.984 42.248C89.064 42.696 89.24 43.088 89.512 43.424C89.784 43.76 90.136 44.024 90.568 44.216C91.016 44.392 91.536 44.48 92.128 44.48C93.056 44.48 93.752 44.272 94.216 43.856C94.68 43.424 94.912 42.904 94.912 42.296C94.912 41.816 94.768 41.416 94.48 41.096C94.192 40.776 93.784 40.504 93.256 40.28C92.744 40.056 92.144 39.84 91.456 39.632C90.816 39.44 90.184 39.232 89.56 39.008C88.936 38.784 88.368 38.504 87.856 38.168C87.344 37.832 86.936 37.4 86.632 36.872C86.344 36.328 86.2 35.648 86.2 34.832C86.2 33.808 86.448 32.936 86.944 32.216C87.456 31.496 88.152 30.952 89.032 30.584C89.912 30.216 90.928 30.032 92.08 30.032C93.056 30.032 93.936 30.176 94.72 30.464C95.504 30.736 96.16 31.144 96.688 31.688C97.232 32.216 97.632 32.872 97.888 33.656L94.888 34.472C94.808 34.12 94.632 33.816 94.36 33.56C94.088 33.304 93.76 33.104 93.376 32.96C92.992 32.8 92.576 32.72 92.128 32.72C91.648 32.704 91.208 32.776 90.808 32.936C90.408 33.096 90.088 33.328 89.848 33.632C89.608 33.936 89.488 34.288 89.488 34.688C89.488 35.136 89.624 35.496 89.896 35.768C90.168 36.024 90.528 36.248 90.976 36.44C91.424 36.616 91.928 36.792 92.488 36.968C93.16 37.16 93.832 37.384 94.504 37.64C95.176 37.88 95.792 38.192 96.352 38.576C96.912 38.944 97.36 39.416 97.696 39.992C98.048 40.568 98.224 41.296 98.224 42.176C98.224 43.104 98 43.944 97.552 44.696C97.12 45.448 96.464 46.048 95.584 46.496C94.704 46.944 93.6 47.168 92.272 47.168C91.184 47.168 90.192 47.008 89.296 46.688C88.416 46.368 87.688 45.904 87.112 45.296C86.536 44.672 86.16 43.936 85.984 43.088L88.984 42.248ZM107.747 47L107.507 45.536C107.107 46.032 106.651 46.424 106.139 46.712C105.643 47 104.971 47.144 104.123 47.144C103.323 47.144 102.619 47.008 102.011 46.736C101.419 46.448 100.955 46.056 100.619 45.56C100.283 45.048 100.115 44.448 100.115 43.76C100.115 42.752 100.475 41.92 101.195 41.264C101.931 40.592 103.035 40.168 104.507 39.992L107.507 39.656V38.816C107.507 38.48 107.355 38.168 107.051 37.88C106.747 37.592 106.267 37.448 105.611 37.448C105.035 37.448 104.531 37.592 104.099 37.88C103.683 38.152 103.403 38.568 103.259 39.128L100.619 38.168C100.939 37.096 101.547 36.272 102.443 35.696C103.339 35.12 104.443 34.832 105.755 34.832C107.355 34.832 108.555 35.232 109.355 36.032C110.171 36.816 110.579 37.856 110.579 39.152V47H107.747ZM107.507 41.792L104.915 42.128C104.387 42.192 103.987 42.352 103.715 42.608C103.443 42.848 103.307 43.144 103.307 43.496C103.307 43.832 103.443 44.12 103.715 44.36C103.987 44.584 104.371 44.696 104.867 44.696C105.427 44.696 105.899 44.592 106.283 44.384C106.683 44.176 106.987 43.872 107.195 43.472C107.403 43.072 107.507 42.576 107.507 41.984V41.792ZM115.722 35L118.578 43.544L121.458 35H124.746L120.282 47H116.85L112.41 35H115.722ZM127.115 35H130.187V47H127.115V35ZM128.675 33.464C128.099 33.464 127.627 33.288 127.259 32.936C126.891 32.568 126.707 32.12 126.707 31.592C126.707 31.064 126.891 30.624 127.259 30.272C127.627 29.904 128.099 29.72 128.675 29.72C129.219 29.72 129.675 29.904 130.043 30.272C130.427 30.624 130.619 31.064 130.619 31.592C130.619 32.12 130.427 32.568 130.043 32.936C129.675 33.288 129.219 33.464 128.675 33.464ZM133.551 35H136.335L136.551 36.224C136.935 35.792 137.399 35.456 137.943 35.216C138.503 34.96 139.103 34.832 139.743 34.832C140.687 34.832 141.487 35.032 142.143 35.432C142.815 35.832 143.327 36.416 143.679 37.184C144.047 37.936 144.231 38.872 144.231 39.992V47H141.135V40.4C141.135 39.472 140.951 38.776 140.583 38.312C140.215 37.848 139.663 37.616 138.927 37.616C138.175 37.616 137.599 37.856 137.199 38.336C136.815 38.8 136.623 39.496 136.623 40.424V47H133.551V35ZM155.62 35H158.404V45.224C158.404 46.584 158.068 47.752 157.396 48.728C156.724 49.72 155.748 50.48 154.468 51.008C153.204 51.536 151.684 51.8 149.908 51.8L149.428 49.208C151.364 49.176 152.828 48.832 153.82 48.176C154.828 47.52 155.332 46.576 155.332 45.344V45.296L155.74 45.152C155.356 45.712 154.828 46.192 154.156 46.592C153.484 46.976 152.684 47.168 151.756 47.168C150.7 47.168 149.772 46.912 148.972 46.4C148.172 45.888 147.54 45.176 147.076 44.264C146.628 43.336 146.404 42.248 146.404 41C146.404 39.752 146.628 38.664 147.076 37.736C147.54 36.808 148.172 36.096 148.972 35.6C149.772 35.088 150.7 34.832 151.756 34.832C152.3 34.832 152.804 34.912 153.268 35.072C153.748 35.216 154.164 35.416 154.516 35.672C154.884 35.912 155.188 36.184 155.428 36.488L155.62 35ZM149.716 41C149.716 42.008 149.972 42.824 150.484 43.448C150.996 44.056 151.684 44.36 152.548 44.36C153.044 44.36 153.5 44.232 153.916 43.976C154.332 43.704 154.668 43.312 154.924 42.8C155.196 42.288 155.332 41.688 155.332 41C155.332 40.28 155.196 39.672 154.924 39.176C154.668 38.68 154.324 38.304 153.892 38.048C153.476 37.776 153.028 37.64 152.548 37.64C151.684 37.64 150.996 37.952 150.484 38.576C149.972 39.184 149.716 39.992 149.716 41ZM163.507 43.088C163.603 43.488 163.763 43.792 163.987 44C164.227 44.208 164.491 44.36 164.779 44.456C165.083 44.536 165.387 44.576 165.691 44.576C166.251 44.576 166.691 44.472 167.011 44.264C167.331 44.04 167.491 43.76 167.491 43.424C167.491 43.136 167.379 42.912 167.155 42.752C166.931 42.576 166.643 42.448 166.291 42.368C165.939 42.272 165.579 42.176 165.211 42.08C164.779 41.968 164.315 41.848 163.819 41.72C163.339 41.576 162.883 41.376 162.451 41.12C162.019 40.864 161.659 40.536 161.371 40.136C161.083 39.72 160.939 39.2 160.939 38.576C160.939 37.84 161.139 37.192 161.539 36.632C161.955 36.072 162.523 35.632 163.243 35.312C163.979 34.992 164.827 34.832 165.787 34.832C166.923 34.832 167.883 35.072 168.667 35.552C169.451 36.032 170.019 36.72 170.371 37.616L167.659 38.384C167.579 38.16 167.443 37.976 167.251 37.832C167.059 37.688 166.827 37.584 166.555 37.52C166.299 37.456 166.035 37.424 165.763 37.424C165.299 37.424 164.915 37.52 164.611 37.712C164.307 37.888 164.155 38.136 164.155 38.456C164.155 38.648 164.211 38.808 164.323 38.936C164.435 39.048 164.587 39.144 164.779 39.224C164.987 39.304 165.219 39.376 165.475 39.44C165.747 39.504 166.043 39.576 166.363 39.656C166.859 39.784 167.355 39.936 167.851 40.112C168.363 40.272 168.827 40.48 169.243 40.736C169.675 40.992 170.019 41.336 170.275 41.768C170.531 42.2 170.675 42.744 170.707 43.4C170.707 44.104 170.507 44.744 170.107 45.32C169.707 45.88 169.131 46.328 168.379 46.664C167.627 47 166.715 47.168 165.643 47.168C164.395 47.168 163.331 46.904 162.451 46.376C161.587 45.848 161.019 45.024 160.747 43.904L163.507 43.088Z" fill="#EDEDED"/>
<rect x="45.5" y="75" width="14" height="159" rx="7" fill="#4F4F4F"/>
<rect x="45.5" y="126" width="14" height="108" rx="7" fill="#EAEAEA"/>
<rect x="83.5" y="75" width="14" height="159" rx="7" fill="#4F4F4F"/>
<rect x="83.5" y="172" width="14" height="62" rx="7" fill="#B3C3EB"/>
<rect x="121.5" y="75" width="14" height="159" rx="7" fill="#4F4F4F"/>
<rect x="121.5" y="158" width="14" height="76" rx="7" fill="#FFDC62"/>
<rect x="159.5" y="75" width="14" height="159" rx="7" fill="#4F4F4F"/>
<rect x="159.5" y="126" width="14" height="108" rx="7" fill="#EDEDED"/>
<rect x="197.5" y="75" width="14" height="159" rx="7" fill="#4F4F4F"/>
<rect x="197.5" y="165" width="14" height="69" rx="7" fill="#F4D0BC"/>
<path d="M46.052 249.3H47.332V257.572C47.332 258.159 47.204 258.681 46.948 259.14C46.692 259.599 46.3347 259.961 45.876 260.228C45.428 260.484 44.9 260.612 44.292 260.612C43.524 260.612 42.8947 260.42 42.404 260.036C41.9133 259.641 41.5773 259.103 41.396 258.42L42.5 258.02C42.5747 258.297 42.6813 258.548 42.82 258.772C42.9693 258.996 43.1613 259.172 43.396 259.3C43.6413 259.428 43.94 259.492 44.292 259.492C44.708 259.492 45.044 259.396 45.3 259.204C45.556 259.012 45.7427 258.772 45.86 258.484C45.988 258.185 46.052 257.881 46.052 257.572V249.3ZM54.865 260.5L54.769 259.06C54.545 259.551 54.2143 259.935 53.777 260.212C53.3397 260.479 52.785 260.612 52.113 260.612C51.537 260.612 51.0463 260.521 50.641 260.34C50.2357 260.159 49.921 259.903 49.697 259.572C49.4837 259.231 49.377 258.831 49.377 258.372C49.377 257.7 49.6277 257.151 50.129 256.724C50.6303 256.287 51.3557 256.02 52.305 255.924L54.769 255.652V255.012C54.769 254.564 54.6037 254.207 54.273 253.94C53.9423 253.663 53.4943 253.524 52.929 253.524C52.3743 253.524 51.9103 253.652 51.537 253.908C51.1743 254.164 50.9237 254.532 50.785 255.012L49.697 254.628C49.9103 253.924 50.2997 253.375 50.865 252.98C51.441 252.585 52.1397 252.388 52.961 252.388C53.9103 252.388 54.6463 252.633 55.169 253.124C55.7023 253.604 55.969 254.26 55.969 255.092V260.5H54.865ZM54.769 256.676L52.289 256.964C51.7557 257.028 51.3503 257.177 51.073 257.412C50.7957 257.636 50.657 257.935 50.657 258.308C50.657 258.681 50.7903 258.98 51.057 259.204C51.3343 259.428 51.729 259.54 52.241 259.54C52.8277 259.54 53.3077 259.423 53.681 259.188C54.0543 258.953 54.3263 258.639 54.497 258.244C54.6783 257.839 54.769 257.401 54.769 256.932V256.676ZM58.3101 252.5H59.4141L59.4781 253.636C59.7341 253.241 60.0701 252.937 60.4861 252.724C60.9021 252.5 61.3875 252.388 61.9421 252.388C62.5501 252.388 63.0835 252.521 63.5421 252.788C64.0008 253.044 64.3581 253.433 64.6141 253.956C64.8701 254.468 64.9981 255.113 64.9981 255.892V260.5H63.7981V256.036C63.7981 255.204 63.6168 254.575 63.2541 254.148C62.9021 253.711 62.3901 253.492 61.7181 253.492C61.0248 253.492 60.4808 253.721 60.0861 254.18C59.7021 254.639 59.5101 255.316 59.5101 256.212V260.5H58.3101V252.5Z" fill="#EDEDED"/>
<path d="M76.86 249.3H84.204V250.42H78.14V254.244H82.7V255.364H78.14V260.5H76.86V249.3ZM89.4826 260.612C88.736 260.612 88.0693 260.431 87.4826 260.068C86.9066 259.705 86.4533 259.209 86.1226 258.58C85.792 257.951 85.6266 257.231 85.6266 256.42C85.6266 255.641 85.792 254.948 86.1226 254.34C86.4533 253.732 86.9066 253.257 87.4826 252.916C88.0586 252.564 88.7146 252.388 89.4506 252.388C90.176 252.388 90.8213 252.548 91.3866 252.868C91.9626 253.188 92.4106 253.631 92.7306 254.196C93.0506 254.761 93.2 255.407 93.1786 256.132C93.1786 256.249 93.1733 256.372 93.1626 256.5C93.152 256.628 93.1413 256.767 93.1306 256.916H86.9386C86.96 257.417 87.0826 257.86 87.3066 258.244C87.5306 258.628 87.824 258.932 88.1866 259.156C88.56 259.369 88.9813 259.476 89.4506 259.476C90.0693 259.476 90.592 259.359 91.0186 259.124C91.456 258.889 91.7706 258.553 91.9626 258.116L93.0026 258.532C92.6826 259.204 92.2186 259.721 91.6106 260.084C91.0026 260.436 90.2933 260.612 89.4826 260.612ZM91.8666 255.876C91.8773 255.417 91.776 255.012 91.5626 254.66C91.36 254.308 91.072 254.031 90.6986 253.828C90.3253 253.625 89.8933 253.524 89.4026 253.524C88.976 253.524 88.5866 253.625 88.2346 253.828C87.8826 254.031 87.5893 254.313 87.3546 254.676C87.1306 255.028 86.9973 255.428 86.9546 255.876H91.8666ZM96.2259 254.116C96.4605 253.625 96.8285 253.215 97.3299 252.884C97.8312 252.553 98.4659 252.388 99.2339 252.388C99.9699 252.388 100.61 252.559 101.154 252.9C101.709 253.241 102.135 253.721 102.434 254.34C102.743 254.948 102.898 255.668 102.898 256.5C102.898 257.332 102.743 258.057 102.434 258.676C102.125 259.295 101.693 259.775 101.138 260.116C100.594 260.447 99.9592 260.612 99.2339 260.612C98.5085 260.612 97.9059 260.457 97.4259 260.148C96.9459 259.839 96.5832 259.46 96.3379 259.012L96.2579 260.5H95.1539V248.98H96.3539V254.132L96.2259 254.116ZM101.602 256.5C101.602 255.583 101.362 254.857 100.882 254.324C100.413 253.78 99.7779 253.508 98.9779 253.508C98.4765 253.508 98.0232 253.631 97.6179 253.876C97.2232 254.111 96.9139 254.452 96.6899 254.9C96.4659 255.337 96.3539 255.871 96.3539 256.5C96.3539 257.129 96.4659 257.668 96.6899 258.116C96.9139 258.564 97.2232 258.905 97.6179 259.14C98.0232 259.375 98.4765 259.492 98.9779 259.492C99.7779 259.492 100.413 259.225 100.882 258.692C101.362 258.148 101.602 257.417 101.602 256.5Z" fill="#EDEDED"/>
<path d="M116.14 260.5H114.86V249.3H116.268L120.428 258.74L124.572 249.3H125.964V260.5H124.684V251.828L120.876 260.5H119.964L116.14 251.828V260.5ZM133.568 260.5L133.472 259.06C133.248 259.551 132.917 259.935 132.48 260.212C132.043 260.479 131.488 260.612 130.816 260.612C130.24 260.612 129.749 260.521 129.344 260.34C128.939 260.159 128.624 259.903 128.4 259.572C128.187 259.231 128.08 258.831 128.08 258.372C128.08 257.7 128.331 257.151 128.832 256.724C129.333 256.287 130.059 256.02 131.008 255.924L133.472 255.652V255.012C133.472 254.564 133.307 254.207 132.976 253.94C132.645 253.663 132.197 253.524 131.632 253.524C131.077 253.524 130.613 253.652 130.24 253.908C129.877 254.164 129.627 254.532 129.488 255.012L128.4 254.628C128.613 253.924 129.003 253.375 129.568 252.98C130.144 252.585 130.843 252.388 131.664 252.388C132.613 252.388 133.349 252.633 133.872 253.124C134.405 253.604 134.672 254.26 134.672 255.092V260.5H133.568ZM133.472 256.676L130.992 256.964C130.459 257.028 130.053 257.177 129.776 257.412C129.499 257.636 129.36 257.935 129.36 258.308C129.36 258.681 129.493 258.98 129.76 259.204C130.037 259.428 130.432 259.54 130.944 259.54C131.531 259.54 132.011 259.423 132.384 259.188C132.757 258.953 133.029 258.639 133.2 258.244C133.381 257.839 133.472 257.401 133.472 256.932V256.676ZM137.013 252.5H138.117L138.181 253.668C138.395 253.38 138.651 253.135 138.949 252.932C139.259 252.729 139.595 252.591 139.957 252.516C140.331 252.431 140.725 252.425 141.141 252.5V253.7C140.693 253.615 140.288 253.615 139.925 253.7C139.573 253.785 139.269 253.945 139.013 254.18C138.757 254.415 138.56 254.713 138.421 255.076C138.283 255.428 138.213 255.839 138.213 256.308V260.5H137.013V252.5Z" fill="#EDEDED"/>
<path d="M157.164 250.42H156.636L152.94 260.5H151.644L155.74 249.3H158.044L162.124 260.5H160.828L157.164 250.42ZM153.644 256.436H160.172V257.556H153.644V256.436ZM164.554 258.884L164.682 258.868V263.7H163.482V252.5H164.586L164.666 253.988C164.911 253.54 165.274 253.161 165.754 252.852C166.234 252.543 166.837 252.388 167.562 252.388C168.255 252.388 168.879 252.559 169.434 252.9C169.989 253.231 170.426 253.705 170.746 254.324C171.066 254.932 171.226 255.657 171.226 256.5C171.226 257.332 171.071 258.057 170.762 258.676C170.463 259.284 170.037 259.759 169.482 260.1C168.938 260.441 168.298 260.612 167.562 260.612C166.794 260.612 166.159 260.447 165.658 260.116C165.157 259.785 164.789 259.375 164.554 258.884ZM169.93 256.5C169.93 255.583 169.69 254.857 169.21 254.324C168.741 253.78 168.106 253.508 167.306 253.508C166.805 253.508 166.351 253.625 165.946 253.86C165.551 254.095 165.242 254.436 165.018 254.884C164.794 255.332 164.682 255.871 164.682 256.5C164.682 257.119 164.794 257.652 165.018 258.1C165.242 258.548 165.551 258.895 165.946 259.14C166.351 259.375 166.805 259.492 167.306 259.492C168.106 259.492 168.741 259.225 169.21 258.692C169.69 258.148 169.93 257.417 169.93 256.5ZM173.185 252.5H174.289L174.353 253.668C174.566 253.38 174.822 253.135 175.121 252.932C175.43 252.729 175.766 252.591 176.129 252.516C176.502 252.431 176.897 252.425 177.313 252.5V253.7C176.865 253.615 176.46 253.615 176.097 253.7C175.745 253.785 175.441 253.945 175.185 254.18C174.929 254.415 174.732 254.713 174.593 255.076C174.454 255.428 174.385 255.839 174.385 256.308V260.5H173.185V252.5Z" fill="#EDEDED"/>
<path d="M190.14 260.5H188.86V249.3H190.268L194.428 258.74L198.572 249.3H199.964V260.5H198.684V251.828L194.876 260.5H193.964L190.14 251.828V260.5ZM207.568 260.5L207.472 259.06C207.248 259.551 206.917 259.935 206.48 260.212C206.043 260.479 205.488 260.612 204.816 260.612C204.24 260.612 203.749 260.521 203.344 260.34C202.939 260.159 202.624 259.903 202.4 259.572C202.187 259.231 202.08 258.831 202.08 258.372C202.08 257.7 202.331 257.151 202.832 256.724C203.333 256.287 204.059 256.02 205.008 255.924L207.472 255.652V255.012C207.472 254.564 207.307 254.207 206.976 253.94C206.645 253.663 206.197 253.524 205.632 253.524C205.077 253.524 204.613 253.652 204.24 253.908C203.877 254.164 203.627 254.532 203.488 255.012L202.4 254.628C202.613 253.924 203.003 253.375 203.568 252.98C204.144 252.585 204.843 252.388 205.664 252.388C206.613 252.388 207.349 252.633 207.872 253.124C208.405 253.604 208.672 254.26 208.672 255.092V260.5H207.568ZM207.472 256.676L204.992 256.964C204.459 257.028 204.053 257.177 203.776 257.412C203.499 257.636 203.36 257.935 203.36 258.308C203.36 258.681 203.493 258.98 203.76 259.204C204.037 259.428 204.432 259.54 204.944 259.54C205.531 259.54 206.011 259.423 206.384 259.188C206.757 258.953 207.029 258.639 207.2 258.244C207.381 257.839 207.472 257.401 207.472 256.932V256.676ZM216.437 252.5H217.685L213.109 263.7H211.957L213.317 260.388L210.085 252.5H211.397L213.957 258.964L216.437 252.5Z" fill="#EDEDED"/>
<rect x="50.5" y="288" width="156" height="39" rx="19.5" fill="#EDEDED"/>
<path d="M87.242 304.766C86.7607 303.867 86.1463 303.214 85.399 302.809C84.6643 302.404 83.86 302.201 82.986 302.201C82.0993 302.201 81.2887 302.416 80.554 302.847C79.8193 303.278 79.2367 303.879 78.806 304.652C78.388 305.412 78.179 306.311 78.179 307.35C78.179 308.376 78.388 309.275 78.806 310.048C79.224 310.821 79.794 311.422 80.516 311.853C81.2507 312.284 82.0677 312.499 82.967 312.499C83.613 312.499 84.221 312.385 84.791 312.157C85.361 311.929 85.855 311.612 86.273 311.207C86.7037 310.802 87.0393 310.32 87.28 309.763V308.319H83.1V306.761H89.199V309.858C88.895 310.669 88.439 311.397 87.831 312.043C87.2357 312.689 86.52 313.202 85.684 313.582C84.8607 313.949 83.955 314.133 82.967 314.133C82.0297 314.133 81.1493 313.968 80.326 313.639C79.5153 313.31 78.806 312.847 78.198 312.252C77.59 311.644 77.115 310.928 76.773 310.105C76.431 309.269 76.26 308.351 76.26 307.35C76.26 306.362 76.431 305.456 76.773 304.633C77.115 303.797 77.59 303.075 78.198 302.467C78.806 301.859 79.5153 301.39 80.326 301.061C81.1493 300.732 82.0297 300.567 82.967 300.567C83.8157 300.567 84.6263 300.706 85.399 300.985C86.1717 301.264 86.862 301.669 87.47 302.201C88.078 302.733 88.553 303.385 88.895 304.158L87.242 304.766ZM95.613 314.133C94.7137 314.133 93.903 313.937 93.181 313.544C92.4717 313.139 91.9143 312.575 91.509 311.853C91.1037 311.118 90.901 310.257 90.901 309.269C90.901 308.268 91.11 307.401 91.528 306.666C91.946 305.931 92.516 305.368 93.238 304.975C93.96 304.57 94.7707 304.367 95.67 304.367C96.5693 304.367 97.38 304.57 98.102 304.975C98.8367 305.368 99.413 305.931 99.831 306.666C100.249 307.388 100.458 308.243 100.458 309.231C100.458 310.232 100.243 311.099 99.812 311.834C99.394 312.569 98.8177 313.139 98.083 313.544C97.3483 313.937 96.525 314.133 95.613 314.133ZM95.594 312.499C96.1007 312.499 96.5757 312.385 97.019 312.157C97.4623 311.916 97.8233 311.555 98.102 311.074C98.3933 310.593 98.539 309.978 98.539 309.231C98.539 308.496 98.3997 307.895 98.121 307.426C97.855 306.945 97.5003 306.59 97.057 306.362C96.6137 306.121 96.1387 306.001 95.632 306.001C95.138 306.001 94.6757 306.121 94.245 306.362C93.827 306.59 93.485 306.945 93.219 307.426C92.953 307.907 92.82 308.522 92.82 309.269C92.82 310.004 92.9467 310.612 93.2 311.093C93.466 311.562 93.808 311.916 94.226 312.157C94.644 312.385 95.1 312.499 95.594 312.499ZM117.333 304.994C116.965 304.323 116.497 303.835 115.927 303.531C115.369 303.214 114.742 303.056 114.046 303.056C113.311 303.056 112.646 303.246 112.051 303.626C111.468 303.993 111.006 304.5 110.664 305.146C110.334 305.792 110.17 306.527 110.17 307.35C110.17 308.211 110.334 308.965 110.664 309.611C110.993 310.244 111.455 310.745 112.051 311.112C112.646 311.467 113.343 311.644 114.141 311.644C114.635 311.644 115.091 311.562 115.509 311.397C115.927 311.22 116.3 310.979 116.63 310.675C116.959 310.371 117.238 310.023 117.466 309.63V308.794H114.046V306.476H120.221V310.162C119.917 310.859 119.473 311.511 118.891 312.119C118.308 312.714 117.605 313.202 116.782 313.582C115.958 313.949 115.021 314.133 113.97 314.133C112.982 314.133 112.076 313.968 111.253 313.639C110.429 313.31 109.714 312.841 109.106 312.233C108.498 311.625 108.023 310.909 107.681 310.086C107.351 309.25 107.187 308.338 107.187 307.35C107.187 306.362 107.351 305.456 107.681 304.633C108.023 303.797 108.491 303.075 109.087 302.467C109.695 301.859 110.41 301.39 111.234 301.061C112.057 300.732 112.963 300.567 113.951 300.567C114.875 300.567 115.743 300.713 116.554 301.004C117.377 301.295 118.093 301.72 118.701 302.277C119.309 302.822 119.758 303.487 120.05 304.272L117.333 304.994ZM129.738 304.918C129.738 304.373 129.573 303.943 129.244 303.626C128.927 303.309 128.427 303.151 127.743 303.151H125.026V306.704H127.743C128.199 306.704 128.573 306.634 128.864 306.495C129.155 306.356 129.371 306.153 129.51 305.887C129.662 305.608 129.738 305.285 129.738 304.918ZM127.895 300.7C128.972 300.7 129.865 300.896 130.574 301.289C131.296 301.669 131.834 302.182 132.189 302.828C132.544 303.461 132.721 304.158 132.721 304.918C132.721 305.437 132.626 305.95 132.436 306.457C132.259 306.951 131.974 307.407 131.581 307.825C131.201 308.23 130.701 308.553 130.08 308.794C129.472 309.035 128.744 309.155 127.895 309.155H125.026V314H122.081V300.7H127.895ZM129.434 308.148L132.987 314H129.719L126.356 308.148H129.434ZM140.986 314.133C140.036 314.133 139.15 313.968 138.326 313.639C137.503 313.31 136.781 312.847 136.16 312.252C135.54 311.644 135.052 310.928 134.697 310.105C134.343 309.269 134.165 308.351 134.165 307.35C134.165 306.349 134.343 305.437 134.697 304.614C135.052 303.778 135.54 303.062 136.16 302.467C136.781 301.859 137.503 301.39 138.326 301.061C139.15 300.732 140.036 300.567 140.986 300.567C141.924 300.567 142.804 300.732 143.627 301.061C144.463 301.39 145.185 301.859 145.793 302.467C146.414 303.062 146.902 303.778 147.256 304.614C147.611 305.437 147.788 306.349 147.788 307.35C147.788 308.351 147.611 309.269 147.256 310.105C146.902 310.928 146.414 311.644 145.793 312.252C145.173 312.847 144.451 313.31 143.627 313.639C142.804 313.968 141.924 314.133 140.986 314.133ZM140.986 311.625C141.734 311.625 142.392 311.448 142.962 311.093C143.545 310.726 143.995 310.219 144.311 309.573C144.641 308.927 144.805 308.186 144.805 307.35C144.805 306.501 144.641 305.76 144.311 305.127C143.995 304.481 143.545 303.981 142.962 303.626C142.392 303.259 141.734 303.075 140.986 303.075C140.214 303.075 139.542 303.259 138.972 303.626C138.402 303.981 137.953 304.481 137.623 305.127C137.307 305.76 137.148 306.501 137.148 307.35C137.148 308.186 137.307 308.927 137.623 309.573C137.953 310.219 138.402 310.726 138.972 311.093C139.542 311.448 140.214 311.625 140.986 311.625Z" fill="#005262"/>
<path d="M158.5 307.5C158.5 301.141 163.641 296 170 296C176.359 296 181.5 301.141 181.5 307.5C181.5 313.859 176.359 319 170 319C163.641 319 158.5 313.859 158.5 307.5ZM180.147 307.5C180.147 301.885 175.615 297.353 170 297.353C164.385 297.353 159.853 301.885 159.853 307.5C159.853 313.115 164.385 317.647 170 317.647C175.615 317.647 180.147 313.115 180.147 307.5Z" fill="#005262"/>
<path d="M168.851 313.115L174.465 307.5L168.851 301.886L169.798 300.938L176.359 307.5L169.798 314.062L168.851 313.115Z" fill="#005262"/>
<path d="M175.412 306.824L175.412 308.177L163.912 308.177L163.912 306.824L175.412 306.824Z" fill="#005262"/>
</svg>
