<svg width="1502" height="1502" viewBox="0 0 1502 1502" fill="none" xmlns="http://www.w3.org/2000/svg">
<circle cx="751" cy="751" r="751" fill="#0D5796" fill-opacity="0.06"/>
<circle cx="751" cy="751" r="580" fill="#0D5796" fill-opacity="0.1"/>
<circle cx="751" cy="751" r="485" fill="black" fill-opacity="0.1"/>
<circle cx="751" cy="751" r="412" fill="#005262" fill-opacity="0.2"/>
<path d="M709.451 363.75C991.279 338.336 1202.36 593.808 1123.2 866.518C1035.37 1169.14 629.443 1237.4 439.614 986.361C259.277 747.896 411.272 390.635 709.451 363.75ZM1064.37 614.998C946.548 331.847 528.533 345.697 427.313 637.119C307.185 982.971 729.714 1252.43 989.439 1000.33C937.463 1027.43 886.824 989.906 887.172 933.984C887.385 900.997 930.141 866.025 913.848 825.59C911.158 818.914 907.881 809.977 905.344 809.241C889.73 807.19 869.032 814.79 856.583 804.347C854.657 802.732 855.359 799.779 857.698 798.857C885.624 787.845 899.046 809.623 930.528 793.009C977.641 768.138 992.655 698.929 953.658 659.395C837.289 751.305 840.834 907.35 698.796 973.635C657.029 993.121 604.182 1007.88 559.257 992.695C532.059 983.513 507.854 964.892 513.104 933.416C466.61 943.101 438.684 922.846 450.114 874.731C467.142 803.062 616.871 741.175 677.622 710.338L727.099 618.388C699.687 652.809 645.804 688.385 596.405 659.395C517.587 613.139 624.495 512.013 734.015 470.13C835.606 431.279 796.973 516.244 789.38 519.64C788.805 519.898 788.592 519.155 788.771 518.55C795.872 494.495 806.524 461.171 767.103 469.142C721.927 478.285 658.396 527.614 624.495 609.936C597.374 675.795 668.082 661.267 690.361 644.803C708.041 631.736 739.144 593.658 751.228 578.499C751.963 577.577 753.439 578.502 752.965 579.582L699.92 700.207C765.805 663.695 834.712 606.224 915.185 626.214C926.672 629.061 952.855 641.897 957.087 644.363C993.537 622.527 993.624 620.181 1019.69 614.998C1036.84 611.59 1043.91 612.842 1065.21 616.716L1064.37 614.998ZM1070.34 626.136C1059.4 622.527 1033.96 618.503 1010.97 625.432C990.556 631.588 974.469 643.572 965.611 649.167C1037.52 710.996 1003.12 794.752 914.507 805.987C979.443 845.715 889.788 947.485 922.798 986.864C940.265 1007.71 966.671 1000.99 987.647 990.197C991.403 988.265 996.079 989.66 997.943 993.45C1092.13 900.145 1122.7 748.555 1070.34 626.136ZM690.737 714.928C658.734 773.097 622.818 850.771 573.941 896.387C559.201 910.146 536.351 922.763 523.759 929.542C522.79 934.385 517.954 943.663 525.511 958.352C544.166 994.593 605.654 993.257 639.478 985.838C730.489 965.867 799.222 812.805 856.7 742.976C883.143 710.841 913.17 680.973 945.096 654.223C861.446 590.495 764.352 673.767 690.737 714.928ZM665.805 727.558C608.87 749.95 449.593 839.026 452.081 896.387C452.488 905.764 453.178 908.836 457.893 916.952C465.207 929.542 525.511 946.007 576.064 878.954C638.523 796.11 627.401 794.92 665.824 727.538L665.805 727.558Z" fill="#005262"/>
</svg>
