<svg width="86" height="86" viewBox="0 0 86 86" fill="none" xmlns="http://www.w3.org/2000/svg">
<path fill-rule="evenodd" clip-rule="evenodd" d="M13.4375 45.297V57.0181C13.4375 58.8819 13.966 60.7075 14.9618 62.283C15.9576 63.8585 17.3798 65.1193 19.0633 65.9191L36.98 74.4259C38.3012 75.0536 39.7456 75.3792 41.2083 75.3792C42.6711 75.3792 44.1154 75.0536 45.4367 74.4259L63.3533 65.9191C65.0368 65.1193 66.459 63.8585 67.4548 62.283C68.4506 60.7075 68.9792 58.8819 68.9792 57.0181V45.3006L45.7771 56.8998C44.3586 57.6094 42.7944 57.9788 41.2083 57.9788C39.6223 57.9788 38.0581 57.6094 36.6396 56.8998L13.4375 45.297Z" fill="url(#paint0_linear_40_3669)"/>
<path fill-rule="evenodd" clip-rule="evenodd" d="M39.0443 12.4127C40.406 11.7319 42.0113 11.7319 43.373 12.4127L74.3975 27.925C77.9629 29.7059 77.9629 34.7942 74.3975 36.5787L43.373 52.0946C42.0113 52.7754 40.406 52.7754 39.0443 52.0946L8.01977 36.5787C4.45435 34.7942 4.45435 29.7059 8.01977 27.925L39.0443 12.4127Z" fill="url(#paint1_linear_40_3669)"/>
<path fill-rule="evenodd" clip-rule="evenodd" d="M71.058 29.258C71.3764 28.6203 71.9351 28.1352 72.6111 27.9094C73.2871 27.6836 74.0252 27.7356 74.6629 28.054L81.8295 31.6373C82.2757 31.8609 82.6507 32.2042 82.9127 32.6288C83.1747 33.0535 83.3134 33.5427 83.313 34.0417V46.5834C83.313 47.2962 83.0299 47.9797 82.5259 48.4837C82.0219 48.9877 81.3383 49.2709 80.6255 49.2709C79.9128 49.2709 79.2292 48.9877 78.7252 48.4837C78.2212 47.9797 77.938 47.2962 77.938 46.5834V35.7044L72.2585 32.8628C71.6208 32.5444 71.1357 31.9858 70.9099 31.3097C70.6841 30.6337 70.7397 29.8957 71.058 29.258Z" fill="url(#paint2_linear_40_3669)"/>
<defs>
<linearGradient id="paint0_linear_40_3669" x1="72.3182" y1="76.858" x2="40.5012" y2="30.3594" gradientUnits="userSpaceOnUse">
<stop stop-color="#0D5796"/>
<stop offset="1" stop-color="#03A6DD"/>
</linearGradient>
<linearGradient id="paint1_linear_40_3669" x1="81.3836" y1="54.6062" x2="37.6414" y2="-6.40652" gradientUnits="userSpaceOnUse">
<stop stop-color="#0D5796"/>
<stop offset="1" stop-color="#03A6DD"/>
</linearGradient>
<linearGradient id="paint2_linear_40_3669" x1="84.067" y1="50.3278" x2="65.4971" y2="41.7535" gradientUnits="userSpaceOnUse">
<stop stop-color="#0D5796"/>
<stop offset="1" stop-color="#03A6DD"/>
</linearGradient>
</defs>
</svg>
