<svg width="86" height="86" viewBox="0 0 86 86" fill="none" xmlns="http://www.w3.org/2000/svg">
<path d="M43.0107 75.25C38.5531 75.25 34.3606 74.4043 30.4333 72.713C26.5083 71.0193 23.0934 68.7212 20.1885 65.8187C17.2836 62.9162 14.9843 59.5048 13.2906 55.5847C11.5969 51.6645 10.75 47.4732 10.75 43.0108C10.75 38.5483 11.5969 34.3558 13.2906 30.4333C14.9819 26.5083 17.2764 23.0934 20.1742 20.1885C23.0719 17.2836 26.4844 14.9843 30.4118 13.2906C34.3391 11.5969 38.5316 10.75 42.9893 10.75C47.4469 10.75 51.6394 11.5969 55.5667 13.2906C59.4917 14.9819 62.9066 17.2776 65.8115 20.1778C68.7164 23.0779 71.0157 26.4904 72.7094 30.4153C74.4031 34.3403 75.25 38.5316 75.25 42.9893C75.25 47.4469 74.4043 51.6394 72.713 55.5668C71.0217 59.4941 68.7236 62.909 65.8187 65.8115C62.9138 68.714 59.5024 71.0133 55.5847 72.7094C51.6669 74.4055 47.4756 75.2524 43.0107 75.25ZM43 71.6667C51.0028 71.6667 57.7812 68.8896 63.3354 63.3354C68.8896 57.7812 71.6667 51.0028 71.6667 43C71.6667 42.5819 71.6631 42.1603 71.6559 41.7351C71.6487 41.3099 71.6225 40.9026 71.5771 40.5132C71.417 42.1066 70.784 43.4252 69.6779 44.4692C68.5695 45.5107 67.2114 46.0315 65.6037 46.0315H56.5056C54.8381 46.0315 53.4108 45.4391 52.2235 44.2542C51.0362 43.0693 50.4426 41.6443 50.4426 39.9792V36.9513H38.313V30.8955C38.313 29.2304 38.9078 27.7995 40.0975 26.6027C41.2848 25.4058 42.7121 24.8074 44.3796 24.8074H47.4111V22.0483C47.4111 20.3091 47.9796 18.9403 49.1167 17.9418C50.2539 16.9432 51.6119 16.3675 53.191 16.2146C51.5833 15.5935 49.9349 15.1252 48.246 14.8099C46.5571 14.4946 44.8084 14.3357 43 14.3333C34.9972 14.3333 28.2187 17.1104 22.6646 22.6646C17.1104 28.2188 14.3333 34.9972 14.3333 43V44.0356C14.3333 44.3557 14.3572 44.6997 14.405 45.0676H30.4583C33.8506 45.0676 36.7196 46.2417 39.0655 48.59C41.4138 50.9359 42.5879 53.7942 42.5879 57.1649V60.2287H33.4898V70.0112C34.9614 70.5415 36.4974 70.95 38.098 71.2367C39.6986 71.5233 41.3326 71.6667 43 71.6667Z" fill="url(#paint0_linear_40_3681)"/>
<defs>
<linearGradient id="paint0_linear_40_3681" x1="79.1276" y1="78.4209" x2="7.89377" y2="22.0366" gradientUnits="userSpaceOnUse">
<stop stop-color="#0D5796"/>
<stop offset="1" stop-color="#03A6DD"/>
</linearGradient>
</defs>
</svg>
