<svg width="393" height="394" viewBox="0 0 393 394" fill="none"  xmlns="http://www.w3.org/2000/svg">
<path d="M175.833 1.48411C317.968 -11.3343 424.424 117.524 384.503 255.077C340.205 407.716 135.482 442.146 39.7449 315.525C-51.2051 195.245 25.4513 15.045 175.833 1.48411ZM354.831 128.212C295.409 -14.6073 84.5898 -7.62163 33.5409 139.37C-27.0436 313.815 186.052 449.727 317.04 322.569C290.827 336.238 265.288 317.313 265.464 289.107C265.571 272.468 287.134 254.828 278.917 234.433C277.561 231.066 275.908 226.558 274.628 226.187C269.357 220.786 249.153 228.3 250.095 221.866C251.143 214.714 270.632 226.812 287.329 218C311.09 205.455 318.662 170.546 298.995 150.605C240.306 196.965 242.094 275.673 170.459 309.106C149.395 318.935 122.742 326.38 100.085 318.72C86.3679 314.089 74.1608 304.696 76.8085 288.82C53.3602 293.705 39.276 283.489 45.0403 259.22C53.6283 223.07 129.141 191.855 159.781 176.301L184.733 129.922C170.909 147.284 143.734 165.228 118.82 150.605C79.0693 127.275 141.265 53.6968 196.5 32.5714C246.122 13.5927 229.409 53.1929 224.828 57.2629C224.357 57.6818 224.078 57.1211 224.257 56.5164C227.833 44.4256 232.809 28.105 213.187 32.0732C190.403 36.6846 150.084 84.136 132.987 125.659C119.308 158.877 154.969 151.55 166.205 143.245C177.441 134.941 199.423 106.607 199.423 106.607L171.026 171.191C204.254 152.774 239.006 123.786 279.591 133.869C285.385 135.305 298.59 141.78 300.724 143.024C319.107 132.01 319.151 130.826 332.297 128.212C340.944 126.493 344.51 127.125 355.257 129.079L354.831 128.212ZM357.84 133.83C352.326 132.01 339.492 129.98 327.9 133.475C317.604 136.58 309.49 142.625 305.023 145.447C341.29 176.633 323.938 218.879 279.25 224.546C311.999 244.584 266.783 295.916 283.431 315.779C292.24 326.292 305.558 322.901 316.137 317.46C318.031 316.486 320.389 317.189 321.329 319.101C368.832 272.038 384.249 195.577 357.84 133.83ZM166.395 178.616C150.255 207.956 132.141 247.134 107.491 270.143C100.057 277.083 88.5326 283.446 82.182 286.866C81.6935 289.308 79.2544 293.989 83.0656 301.397C92.4742 319.677 123.485 319.003 140.543 315.261C186.443 305.188 221.108 227.985 250.095 192.763C263.432 176.555 278.575 161.489 294.677 147.997C252.489 115.853 203.521 157.855 166.395 178.616ZM153.821 184.986C125.106 196.281 44.7777 241.21 46.0326 270.143C46.2377 274.872 46.5859 276.422 48.9636 280.515C52.6523 286.866 83.0656 295.171 108.561 261.35C140.061 219.564 134.452 218.964 153.831 184.977L153.821 184.986Z" fill="#ffff"/>
</svg>
