<svg width="35" height="35" viewBox="0 0 35 35" fill="none" xmlns="http://www.w3.org/2000/svg">
<rect width="35" height="35" rx="17.5" fill="#252525"/>
<path d="M15.798 1.43987C27.5033 0.384235 36.2702 10.9961 32.9826 22.324C29.3345 34.8942 12.475 37.7296 4.59076 27.3021C-2.89924 17.3966 3.41363 2.55665 15.798 1.43987ZM30.539 11.8763C25.6455 0.114695 8.28386 0.689983 4.07984 12.7952C-0.909471 27.1612 16.6396 38.354 27.4269 27.8822C25.2681 29.0078 23.1649 27.4493 23.1794 25.1264C23.1882 23.7562 24.964 22.3035 24.2873 20.6239C24.1756 20.3466 24.0395 19.9754 23.9341 19.9448C23.5 19.5 21.8361 20.1188 21.9137 19.589C22 19 23.605 19.9963 24.9801 19.2706C26.9368 18.2375 27.5604 15.3626 25.9408 13.7204C21.1075 17.5383 21.2548 24.0201 15.3555 26.7734C13.6208 27.5829 11.4258 28.196 9.55995 27.5652C8.4303 27.1838 7.425 26.4103 7.64305 25.1028C5.71202 25.5051 4.55214 24.6638 5.02685 22.6652C5.73409 19.6881 11.9528 17.1175 14.476 15.8365L16.531 12.0171C15.3925 13.4469 13.1545 14.9247 11.1028 13.7204C7.82924 11.7991 12.9513 5.73974 17.5 4C20.4268 2.88061 20.5514 4.23573 20.2478 5.21819C20.0616 5.82071 19.9041 5.70251 20.0163 5.08194C20.1494 4.34553 20.0294 3.72537 18.8743 3.95897C16.9979 4.33874 13.6775 8.2465 12.2695 11.666C11.143 14.4017 14.0798 13.7982 15.0051 13.1143C15.9304 12.4304 17.7407 10.0971 17.7407 10.0971L15.4021 15.4157C18.1386 13.8991 21.0005 11.5118 24.3428 12.3422C24.82 12.4604 25.9074 12.9936 26.0832 13.0961C27.5971 12.189 27.6007 12.0916 28.6833 11.8763C29.3954 11.7347 29.689 11.7867 30.5741 11.9476L30.539 11.8763ZM30.7868 12.3389C30.3327 12.189 29.2758 12.0219 28.3212 12.3097C27.4732 12.5654 26.8051 13.0632 26.4372 13.2956C29.4239 15.8639 27.9949 19.343 24.3147 19.8096C27.0117 21.4599 23.288 25.6872 24.659 27.323C25.3845 28.1887 26.4812 27.9095 27.3524 27.4614C27.5084 27.3812 27.7027 27.4391 27.7801 27.5965C31.692 23.7208 32.9617 17.424 30.7868 12.3389ZM15.0208 16.0272C13.6916 18.4434 12.1998 21.6699 10.1698 23.5647C9.55762 24.1362 8.60857 24.6603 8.08558 24.9419C8.04535 25.1431 7.84448 25.5285 8.15834 26.1386C8.93317 27.644 11.487 27.5885 12.8918 27.2803C16.6718 26.4508 19.5265 20.0929 21.9137 17.1923C23.012 15.8575 24.2591 14.6168 25.5851 13.5056C22.1109 10.8585 18.0782 14.3175 15.0208 16.0272ZM13.9852 16.5518C11.6205 17.4819 5.00523 21.182 5.10857 23.5647C5.12546 23.9542 5.15414 24.0818 5.34995 24.4189C5.65372 24.9419 8.15834 25.6258 10.258 22.8406C12.8521 19.3994 12.3902 19.3499 13.986 16.551L13.9852 16.5518Z" fill="#EDEDED"/>
</svg>
