<svg width="413" height="425" viewBox="0 0 413 425" fill="none" xmlns="http://www.w3.org/2000/svg">
<g opacity="0.2">
<rect width="425" height="425" rx="212.5" fill="#252525"/>
<path d="M191.833 17.4841C333.968 4.66571 440.424 133.524 400.503 271.077C356.205 423.716 151.482 458.146 55.7449 331.525C-35.2051 211.245 41.4513 31.045 191.833 17.4841ZM370.831 144.212C311.409 1.39273 100.59 8.37837 49.5409 155.37C-11.0436 329.815 202.052 465.727 333.04 338.569C306.827 352.238 281.288 333.313 281.464 305.107C281.571 288.468 303.134 270.828 294.917 250.433C293.561 247.066 291.908 242.558 290.628 242.187C285.357 236.786 265.153 244.3 266.095 237.866C267.143 230.714 286.632 242.812 303.329 234C327.09 221.455 334.662 186.546 314.995 166.605C256.306 212.965 258.094 291.673 186.459 325.106C165.395 334.935 138.742 342.38 116.085 334.72C102.368 330.089 90.1608 320.696 92.8085 304.82C69.3602 309.705 55.276 299.489 61.0403 275.22C69.6283 239.07 145.141 207.855 175.781 192.301L200.733 145.922C186.909 163.284 159.734 181.228 134.82 166.605C95.0693 143.275 157.265 69.6968 212.5 48.5714C262.122 29.5927 245.409 69.1929 240.828 73.2629C240.357 73.6818 240.078 73.1211 240.257 72.5164C243.833 60.4256 248.809 44.105 229.187 48.0732C206.403 52.6846 166.084 100.136 148.987 141.659C135.308 174.877 170.969 167.55 182.205 159.245C193.441 150.941 215.423 122.607 215.423 122.607L187.026 187.191C220.254 168.774 255.006 139.786 295.591 149.869C301.385 151.305 314.59 157.78 316.724 159.024C335.107 148.01 335.151 146.826 348.297 144.212C356.944 142.493 360.51 143.125 371.257 145.079L370.831 144.212ZM373.84 149.83C368.326 148.01 355.492 145.98 343.9 149.475C333.604 152.58 325.49 158.625 321.023 161.447C357.29 192.633 339.938 234.879 295.25 240.546C327.999 260.584 282.783 311.916 299.431 331.779C308.24 342.292 321.558 338.901 332.137 333.46C334.031 332.486 336.389 333.189 337.329 335.101C384.832 288.038 400.249 211.577 373.84 149.83ZM182.395 194.616C166.255 223.956 148.141 263.134 123.491 286.143C116.057 293.083 104.533 299.446 98.182 302.866C97.6935 305.308 95.2544 309.989 99.0656 317.397C108.474 335.677 139.485 335.003 156.543 331.261C202.443 321.188 237.108 243.985 266.095 208.763C279.432 192.555 294.575 177.489 310.677 163.997C268.489 131.853 219.521 173.855 182.395 194.616ZM169.821 200.986C141.106 212.281 60.7777 257.21 62.0326 286.143C62.2377 290.872 62.5859 292.422 64.9636 296.515C68.6523 302.866 99.0656 311.171 124.561 277.35C156.061 235.564 150.452 234.964 169.831 200.977L169.821 200.986Z" fill="#EDEDED"/>
</g>
</svg>
