<svg width="206" height="35" viewBox="0 0 206 35" fill="none" xmlns="http://www.w3.org/2000/svg">
<rect width="35" height="35" rx="17.5" fill="#EDEDED"/>
<path d="M15.798 1.43987C27.5033 0.384235 36.2702 10.9961 32.9826 22.324C29.3345 34.8942 12.475 37.7296 4.59076 27.3021C-2.89924 17.3966 3.41363 2.55665 15.798 1.43987ZM30.539 11.8763C25.6455 0.114695 8.28386 0.689983 4.07984 12.7952C-0.909471 27.1612 16.6396 38.354 27.4269 27.8822C25.2681 29.0078 23.1649 27.4493 23.1794 25.1264C23.1882 23.7562 24.964 22.3035 24.2873 20.6239C24.1756 20.3466 24.0395 19.9754 23.9341 19.9448C23.5 19.5 21.8361 20.1188 21.9137 19.589C22 19 23.605 19.9963 24.9801 19.2706C26.9368 18.2375 27.5604 15.3626 25.9408 13.7204C21.1075 17.5383 21.2548 24.0201 15.3555 26.7734C13.6208 27.5829 11.4258 28.196 9.55995 27.5652C8.4303 27.1838 7.425 26.4103 7.64305 25.1028C5.71202 25.5051 4.55214 24.6638 5.02685 22.6652C5.73409 19.6881 11.9528 17.1175 14.476 15.8365L16.531 12.0171C15.3925 13.4469 13.1545 14.9247 11.1028 13.7204C7.82924 11.7991 12.9513 5.73974 17.5 4C20.4268 2.88061 20.5514 4.23573 20.2478 5.21819C20.0616 5.82071 19.9041 5.70251 20.0163 5.08194C20.1494 4.34553 20.0294 3.72537 18.8743 3.95897C16.9979 4.33874 13.6775 8.2465 12.2695 11.666C11.143 14.4017 14.0798 13.7982 15.0051 13.1143C15.9304 12.4304 17.7407 10.0971 17.7407 10.0971L15.4021 15.4157C18.1386 13.8991 21.0005 11.5118 24.3428 12.3422C24.82 12.4604 25.9074 12.9936 26.0832 13.0961C27.5971 12.189 27.6007 12.0916 28.6833 11.8763C29.3954 11.7347 29.689 11.7867 30.5741 11.9476L30.539 11.8763ZM30.7868 12.3389C30.3327 12.189 29.2758 12.0219 28.3212 12.3097C27.4732 12.5654 26.8051 13.0632 26.4372 13.2956C29.4239 15.8639 27.9949 19.343 24.3147 19.8096C27.0117 21.4599 23.288 25.6872 24.659 27.323C25.3845 28.1887 26.4812 27.9095 27.3524 27.4614C27.5084 27.3812 27.7027 27.4391 27.7801 27.5965C31.692 23.7208 32.9617 17.424 30.7868 12.3389ZM15.0208 16.0272C13.6916 18.4434 12.1998 21.6699 10.1698 23.5647C9.55762 24.1362 8.60857 24.6603 8.08558 24.9419C8.04535 25.1431 7.84448 25.5285 8.15834 26.1386C8.93317 27.644 11.487 27.5885 12.8918 27.2803C16.6718 26.4508 19.5265 20.0929 21.9137 17.1923C23.012 15.8575 24.2591 14.6168 25.5851 13.5056C22.1109 10.8585 18.0782 14.3175 15.0208 16.0272ZM13.9852 16.5518C11.6205 17.4819 5.00523 21.182 5.10857 23.5647C5.12546 23.9542 5.15414 24.0818 5.34995 24.4189C5.65372 24.9419 8.15834 25.6258 10.258 22.8406C12.8521 19.3994 12.3902 19.3499 13.986 16.551L13.9852 16.5518Z" fill="#252525"/>
<path d="M61.978 14.794C61.446 13.8 60.767 13.079 59.941 12.631C59.129 12.183 58.24 11.959 57.274 11.959C56.294 11.959 55.398 12.197 54.586 12.673C53.774 13.149 53.13 13.814 52.654 14.668C52.192 15.508 51.961 16.502 51.961 17.65C51.961 18.784 52.192 19.778 52.654 20.632C53.116 21.486 53.746 22.151 54.544 22.627C55.356 23.103 56.259 23.341 57.253 23.341C57.967 23.341 58.639 23.215 59.269 22.963C59.899 22.711 60.445 22.361 60.907 21.913C61.383 21.465 61.754 20.933 62.02 20.317V18.721H57.4V16.999H64.141V20.422C63.805 21.318 63.301 22.123 62.629 22.837C61.971 23.551 61.18 24.118 60.256 24.538C59.346 24.944 58.345 25.147 57.253 25.147C56.217 25.147 55.244 24.965 54.334 24.601C53.438 24.237 52.654 23.726 51.982 23.068C51.31 22.396 50.785 21.605 50.407 20.695C50.029 19.771 49.84 18.756 49.84 17.65C49.84 16.558 50.029 15.557 50.407 14.647C50.785 13.723 51.31 12.925 51.982 12.253C52.654 11.581 53.438 11.063 54.334 10.699C55.244 10.335 56.217 10.153 57.253 10.153C58.191 10.153 59.087 10.307 59.941 10.615C60.795 10.923 61.558 11.371 62.23 11.959C62.902 12.547 63.427 13.268 63.805 14.122L61.978 14.794ZM75.2201 14.689C75.2201 13.891 74.9821 13.254 74.5061 12.778C74.0301 12.302 73.2741 12.064 72.2381 12.064H68.8781V17.293H72.2591C72.9451 17.293 73.5051 17.188 73.9391 16.978C74.3731 16.754 74.6951 16.446 74.9051 16.054C75.1151 15.662 75.2201 15.207 75.2201 14.689ZM72.2381 10.3C73.4001 10.3 74.3521 10.503 75.0941 10.909C75.8501 11.301 76.4101 11.826 76.7741 12.484C77.1521 13.142 77.3411 13.877 77.3411 14.689C77.3411 15.221 77.2501 15.746 77.0681 16.264C76.8861 16.782 76.5921 17.258 76.1861 17.692C75.7801 18.112 75.2481 18.448 74.5901 18.7C73.9461 18.938 73.1691 19.057 72.2591 19.057H68.8781V25H66.7781V10.3H72.2381ZM73.5821 18.343L77.6351 25H75.2621L71.3561 18.343H73.5821ZM86.7227 25.147C85.6867 25.147 84.7137 24.965 83.8037 24.601C82.9077 24.237 82.1237 23.726 81.4517 23.068C80.7797 22.396 80.2547 21.605 79.8767 20.695C79.4987 19.771 79.3097 18.756 79.3097 17.65C79.3097 16.544 79.4987 15.536 79.8767 14.626C80.2547 13.716 80.7797 12.925 81.4517 12.253C82.1237 11.581 82.9077 11.063 83.8037 10.699C84.7137 10.335 85.6867 10.153 86.7227 10.153C87.7447 10.153 88.7037 10.335 89.5997 10.699C90.4957 11.063 91.2797 11.581 91.9517 12.253C92.6237 12.925 93.1487 13.716 93.5267 14.626C93.9047 15.536 94.0937 16.544 94.0937 17.65C94.0937 18.756 93.9047 19.771 93.5267 20.695C93.1487 21.605 92.6237 22.396 91.9517 23.068C91.2797 23.726 90.4957 24.237 89.5997 24.601C88.7037 24.965 87.7447 25.147 86.7227 25.147ZM86.7227 23.341C87.7167 23.341 88.6057 23.11 89.3897 22.648C90.1877 22.186 90.8177 21.528 91.2797 20.674C91.7417 19.82 91.9727 18.812 91.9727 17.65C91.9727 16.474 91.7417 15.466 91.2797 14.626C90.8177 13.772 90.1877 13.114 89.3897 12.652C88.6057 12.19 87.7167 11.959 86.7227 11.959C85.7147 11.959 84.8117 12.19 84.0137 12.652C83.2157 13.114 82.5857 13.772 82.1237 14.626C81.6757 15.466 81.4517 16.474 81.4517 17.65C81.4517 18.812 81.6757 19.82 82.1237 20.674C82.5857 21.528 83.2157 22.186 84.0137 22.648C84.8117 23.11 85.7147 23.341 86.7227 23.341ZM108.468 12.064H107.733L103.113 25H100.971L106.263 10.3H109.896L115.188 25H113.046L108.468 12.064ZM103.68 19.498H112.248V21.262H103.68V19.498ZM118.031 21.682C118.129 22.102 118.297 22.431 118.535 22.669C118.773 22.907 119.053 23.082 119.375 23.194C119.711 23.292 120.061 23.341 120.425 23.341C121.055 23.341 121.545 23.215 121.895 22.963C122.245 22.711 122.42 22.396 122.42 22.018C122.42 21.696 122.308 21.444 122.084 21.262C121.874 21.066 121.587 20.912 121.223 20.8C120.873 20.688 120.495 20.583 120.089 20.485C119.725 20.387 119.326 20.275 118.892 20.149C118.472 20.023 118.073 19.855 117.695 19.645C117.331 19.421 117.03 19.141 116.792 18.805C116.554 18.455 116.435 18.014 116.435 17.482C116.435 16.852 116.603 16.306 116.939 15.844C117.289 15.368 117.765 15.004 118.367 14.752C118.983 14.486 119.676 14.353 120.446 14.353C121.342 14.353 122.126 14.549 122.798 14.941C123.484 15.319 123.981 15.893 124.289 16.663L122.504 17.251C122.406 16.985 122.245 16.768 122.021 16.6C121.797 16.432 121.538 16.32 121.244 16.264C120.964 16.194 120.684 16.159 120.404 16.159C119.872 16.159 119.431 16.264 119.081 16.474C118.731 16.684 118.556 16.992 118.556 17.398C118.556 17.622 118.612 17.811 118.724 17.965C118.836 18.105 118.99 18.224 119.186 18.322C119.396 18.406 119.641 18.483 119.921 18.553C120.201 18.623 120.502 18.7 120.824 18.784C121.244 18.91 121.671 19.05 122.105 19.204C122.539 19.344 122.938 19.526 123.302 19.75C123.666 19.974 123.96 20.268 124.184 20.632C124.408 20.996 124.527 21.444 124.541 21.976C124.541 22.592 124.366 23.138 124.016 23.614C123.68 24.09 123.197 24.468 122.567 24.748C121.951 25.014 121.216 25.147 120.362 25.147C119.326 25.147 118.444 24.916 117.716 24.454C116.988 23.992 116.498 23.278 116.246 22.312L118.031 21.682ZM128.121 21.682C128.219 22.102 128.387 22.431 128.625 22.669C128.863 22.907 129.143 23.082 129.465 23.194C129.801 23.292 130.151 23.341 130.515 23.341C131.145 23.341 131.635 23.215 131.985 22.963C132.335 22.711 132.51 22.396 132.51 22.018C132.51 21.696 132.398 21.444 132.174 21.262C131.964 21.066 131.677 20.912 131.313 20.8C130.963 20.688 130.585 20.583 130.179 20.485C129.815 20.387 129.416 20.275 128.982 20.149C128.562 20.023 128.163 19.855 127.785 19.645C127.421 19.421 127.12 19.141 126.882 18.805C126.644 18.455 126.525 18.014 126.525 17.482C126.525 16.852 126.693 16.306 127.029 15.844C127.379 15.368 127.855 15.004 128.457 14.752C129.073 14.486 129.766 14.353 130.536 14.353C131.432 14.353 132.216 14.549 132.888 14.941C133.574 15.319 134.071 15.893 134.379 16.663L132.594 17.251C132.496 16.985 132.335 16.768 132.111 16.6C131.887 16.432 131.628 16.32 131.334 16.264C131.054 16.194 130.774 16.159 130.494 16.159C129.962 16.159 129.521 16.264 129.171 16.474C128.821 16.684 128.646 16.992 128.646 17.398C128.646 17.622 128.702 17.811 128.814 17.965C128.926 18.105 129.08 18.224 129.276 18.322C129.486 18.406 129.731 18.483 130.011 18.553C130.291 18.623 130.592 18.7 130.914 18.784C131.334 18.91 131.761 19.05 132.195 19.204C132.629 19.344 133.028 19.526 133.392 19.75C133.756 19.974 134.05 20.268 134.274 20.632C134.498 20.996 134.617 21.444 134.631 21.976C134.631 22.592 134.456 23.138 134.106 23.614C133.77 24.09 133.287 24.468 132.657 24.748C132.041 25.014 131.306 25.147 130.452 25.147C129.416 25.147 128.534 24.916 127.806 24.454C127.078 23.992 126.588 23.278 126.336 22.312L128.121 21.682ZM141.633 25.147C140.639 25.147 139.743 24.93 138.945 24.496C138.161 24.048 137.545 23.425 137.097 22.627C136.649 21.815 136.425 20.863 136.425 19.771C136.425 18.665 136.656 17.706 137.118 16.894C137.58 16.082 138.21 15.459 139.008 15.025C139.806 14.577 140.702 14.353 141.696 14.353C142.69 14.353 143.586 14.577 144.384 15.025C145.196 15.459 145.833 16.082 146.295 16.894C146.757 17.692 146.988 18.637 146.988 19.729C146.988 20.835 146.75 21.794 146.274 22.606C145.812 23.418 145.175 24.048 144.363 24.496C143.551 24.93 142.641 25.147 141.633 25.147ZM141.612 23.341C142.172 23.341 142.697 23.215 143.187 22.963C143.677 22.697 144.076 22.298 144.384 21.766C144.706 21.234 144.867 20.555 144.867 19.729C144.867 18.917 144.713 18.252 144.405 17.734C144.111 17.202 143.719 16.81 143.229 16.558C142.739 16.292 142.214 16.159 141.654 16.159C141.108 16.159 140.597 16.292 140.121 16.558C139.659 16.81 139.281 17.202 138.987 17.734C138.693 18.266 138.546 18.945 138.546 19.771C138.546 20.583 138.686 21.255 138.966 21.787C139.26 22.305 139.638 22.697 140.1 22.963C140.562 23.215 141.066 23.341 141.612 23.341ZM153.895 25.147C152.887 25.147 151.998 24.923 151.228 24.475C150.458 24.013 149.856 23.383 149.422 22.585C149.002 21.787 148.792 20.856 148.792 19.792C148.792 18.714 149.009 17.769 149.443 16.957C149.877 16.145 150.479 15.508 151.249 15.046C152.019 14.584 152.915 14.353 153.937 14.353C155.015 14.353 155.96 14.605 156.772 15.109C157.598 15.613 158.193 16.292 158.557 17.146L156.772 17.776C156.562 17.286 156.205 16.894 155.701 16.6C155.211 16.306 154.651 16.159 154.021 16.159C153.377 16.159 152.824 16.313 152.362 16.621C151.9 16.915 151.543 17.335 151.291 17.881C151.039 18.413 150.913 19.043 150.913 19.771C150.913 20.863 151.193 21.731 151.753 22.375C152.313 23.019 153.069 23.341 154.021 23.341C154.651 23.341 155.211 23.201 155.701 22.921C156.205 22.641 156.583 22.256 156.835 21.766L158.599 22.396C158.207 23.236 157.591 23.908 156.751 24.412C155.911 24.902 154.959 25.147 153.895 25.147ZM167.413 25L167.245 23.467C166.923 23.999 166.503 24.412 165.985 24.706C165.481 24.986 164.823 25.126 164.011 25.126C163.255 25.126 162.611 25.007 162.079 24.769C161.547 24.517 161.134 24.174 160.84 23.74C160.56 23.292 160.42 22.774 160.42 22.186C160.42 21.304 160.749 20.576 161.407 20.002C162.065 19.414 163.017 19.05 164.263 18.91L167.245 18.574V17.755C167.245 17.307 167.063 16.929 166.699 16.621C166.335 16.299 165.81 16.138 165.124 16.138C164.48 16.138 163.934 16.292 163.486 16.6C163.038 16.894 162.737 17.335 162.583 17.923L160.819 17.293C161.085 16.369 161.603 15.648 162.373 15.13C163.157 14.612 164.102 14.353 165.208 14.353C166.524 14.353 167.525 14.682 168.211 15.34C168.897 15.998 169.24 16.866 169.24 17.944V25H167.413ZM167.245 20.191L164.368 20.548C163.752 20.632 163.29 20.807 162.982 21.073C162.674 21.325 162.52 21.661 162.52 22.081C162.52 22.473 162.667 22.802 162.961 23.068C163.269 23.32 163.696 23.446 164.242 23.446C164.914 23.446 165.474 23.32 165.922 23.068C166.37 22.816 166.699 22.466 166.909 22.018C167.133 21.556 167.245 21.024 167.245 20.422V20.191ZM172.397 14.5H174.392V25H172.397V14.5ZM173.405 12.652C173.027 12.652 172.712 12.526 172.46 12.274C172.208 12.022 172.082 11.714 172.082 11.35C172.082 10.972 172.208 10.657 172.46 10.405C172.712 10.139 173.027 10.006 173.405 10.006C173.769 10.006 174.077 10.139 174.329 10.405C174.595 10.657 174.728 10.972 174.728 11.35C174.728 11.714 174.595 12.022 174.329 12.274C174.077 12.526 173.769 12.652 173.405 12.652ZM178.373 14.5V11.56H180.368V14.5H182.993V16.264H180.368V21.43C180.368 22.074 180.494 22.529 180.746 22.795C181.012 23.061 181.341 23.215 181.733 23.257C182.139 23.285 182.559 23.271 182.993 23.215V24.916C182.419 25.042 181.852 25.077 181.292 25.021C180.746 24.979 180.249 24.825 179.801 24.559C179.367 24.293 179.017 23.908 178.751 23.404C178.499 22.886 178.373 22.228 178.373 21.43V16.264H176.861V14.5H178.373ZM189.764 25.147C188.756 25.147 187.86 24.916 187.076 24.454C186.306 23.978 185.697 23.327 185.249 22.501C184.815 21.675 184.598 20.73 184.598 19.666C184.598 18.644 184.815 17.734 185.249 16.936C185.683 16.138 186.278 15.508 187.034 15.046C187.804 14.584 188.672 14.353 189.638 14.353C190.618 14.353 191.486 14.57 192.242 15.004C192.998 15.424 193.586 16.019 194.006 16.789C194.426 17.545 194.629 18.42 194.615 19.414C194.615 19.582 194.608 19.757 194.594 19.939C194.58 20.107 194.559 20.296 194.531 20.506H186.761C186.803 21.066 186.957 21.563 187.223 21.997C187.503 22.417 187.853 22.746 188.273 22.984C188.707 23.222 189.197 23.341 189.743 23.341C190.443 23.341 191.052 23.208 191.57 22.942C192.088 22.662 192.452 22.291 192.662 21.829L194.384 22.438C193.964 23.292 193.348 23.957 192.536 24.433C191.738 24.909 190.814 25.147 189.764 25.147ZM192.452 18.805C192.452 18.301 192.326 17.846 192.074 17.44C191.822 17.034 191.479 16.719 191.045 16.495C190.625 16.257 190.149 16.138 189.617 16.138C189.141 16.138 188.7 16.257 188.294 16.495C187.902 16.719 187.566 17.034 187.286 17.44C187.02 17.832 186.852 18.287 186.782 18.805H192.452ZM198.216 21.682C198.314 22.102 198.482 22.431 198.72 22.669C198.958 22.907 199.238 23.082 199.56 23.194C199.896 23.292 200.246 23.341 200.61 23.341C201.24 23.341 201.73 23.215 202.08 22.963C202.43 22.711 202.605 22.396 202.605 22.018C202.605 21.696 202.493 21.444 202.269 21.262C202.059 21.066 201.772 20.912 201.408 20.8C201.058 20.688 200.68 20.583 200.274 20.485C199.91 20.387 199.511 20.275 199.077 20.149C198.657 20.023 198.258 19.855 197.88 19.645C197.516 19.421 197.215 19.141 196.977 18.805C196.739 18.455 196.62 18.014 196.62 17.482C196.62 16.852 196.788 16.306 197.124 15.844C197.474 15.368 197.95 15.004 198.552 14.752C199.168 14.486 199.861 14.353 200.631 14.353C201.527 14.353 202.311 14.549 202.983 14.941C203.669 15.319 204.166 15.893 204.474 16.663L202.689 17.251C202.591 16.985 202.43 16.768 202.206 16.6C201.982 16.432 201.723 16.32 201.429 16.264C201.149 16.194 200.869 16.159 200.589 16.159C200.057 16.159 199.616 16.264 199.266 16.474C198.916 16.684 198.741 16.992 198.741 17.398C198.741 17.622 198.797 17.811 198.909 17.965C199.021 18.105 199.175 18.224 199.371 18.322C199.581 18.406 199.826 18.483 200.106 18.553C200.386 18.623 200.687 18.7 201.009 18.784C201.429 18.91 201.856 19.05 202.29 19.204C202.724 19.344 203.123 19.526 203.487 19.75C203.851 19.974 204.145 20.268 204.369 20.632C204.593 20.996 204.712 21.444 204.726 21.976C204.726 22.592 204.551 23.138 204.201 23.614C203.865 24.09 203.382 24.468 202.752 24.748C202.136 25.014 201.401 25.147 200.547 25.147C199.511 25.147 198.629 24.916 197.901 24.454C197.173 23.992 196.683 23.278 196.431 22.312L198.216 21.682Z" fill="#EDEDED"/>
</svg>
