<svg width="33" height="34" viewBox="0 0 33 34" fill="none" xmlns="http://www.w3.org/2000/svg">
<path d="M25.2656 0.5H7.73438C3.4628 0.5 0 3.9628 0 8.23438V25.7656C0 30.0372 3.4628 33.5 7.73438 33.5H25.2656C29.5372 33.5 33 30.0372 33 25.7656V8.23438C33 3.9628 29.5372 0.5 25.2656 0.5Z" fill="url(#paint0_radial_163_1309)"/>
<path d="M25.2656 0.5H7.73438C3.4628 0.5 0 3.9628 0 8.23438V25.7656C0 30.0372 3.4628 33.5 7.73438 33.5H25.2656C29.5372 33.5 33 30.0372 33 25.7656V8.23438C33 3.9628 29.5372 0.5 25.2656 0.5Z" fill="url(#paint1_radial_163_1309)"/>
<path d="M16.5012 4.10938C13.0003 4.10938 12.5609 4.12471 11.186 4.18723C9.81363 4.25014 8.87687 4.46735 8.05729 4.78613C7.20934 5.11536 6.49017 5.55583 5.77371 6.27255C5.05661 6.98914 4.61613 7.70831 4.28588 8.55587C3.96619 9.37571 3.74872 10.3129 3.68698 11.6846C3.62549 13.0596 3.60938 13.4992 3.60938 17.0001C3.60938 20.5011 3.62484 20.9391 3.68723 22.314C3.7504 23.6864 3.96761 24.6231 4.28613 25.4427C4.61562 26.2907 5.05609 27.0098 5.77281 27.7263C6.48914 28.4434 7.20831 28.8849 8.05561 29.2141C8.87584 29.5329 9.81273 29.7501 11.1848 29.813C12.5599 29.8755 12.9989 29.8909 16.4996 29.8909C20.0008 29.8909 20.4389 29.8755 21.8138 29.813C23.1861 29.7501 24.1239 29.5329 24.9441 29.2141C25.7917 28.8849 26.5098 28.4434 27.226 27.7263C27.9431 27.0098 28.3835 26.2907 28.7139 25.4431C29.0307 24.6231 29.2483 23.6861 29.3128 22.3143C29.3745 20.9394 29.3906 20.5011 29.3906 17.0001C29.3906 13.4992 29.3745 13.0599 29.3128 11.6848C29.2483 10.3125 29.0307 9.37584 28.7139 8.55625C28.3835 7.70831 27.9431 6.98914 27.226 6.27255C26.5091 5.55557 25.7919 5.1151 24.9434 4.78626C24.1216 4.46735 23.1843 4.25001 21.812 4.18723C20.4369 4.12471 19.9992 4.10938 16.4972 4.10938H16.5012ZM15.3447 6.43239C15.688 6.43188 16.071 6.43239 16.5012 6.43239C19.9431 6.43239 20.3509 6.44477 21.7101 6.50652C22.967 6.56401 23.6491 6.774 24.1035 6.95047C24.7051 7.18405 25.134 7.46339 25.5849 7.91469C26.0361 8.36586 26.3153 8.7955 26.5495 9.39711C26.726 9.85086 26.9363 10.533 26.9935 11.7899C27.0552 13.1488 27.0686 13.5569 27.0686 16.9972C27.0686 20.4374 27.0552 20.8457 26.9935 22.2045C26.936 23.4613 26.726 24.1435 26.5495 24.5973C26.316 25.199 26.0361 25.6273 25.5849 26.0782C25.1338 26.5294 24.7054 26.8086 24.1035 27.0423C23.6497 27.2196 22.967 27.429 21.7101 27.4865C20.3512 27.5483 19.9431 27.5617 16.5012 27.5617C13.0591 27.5617 12.6511 27.5483 11.2923 27.4865C10.0355 27.4285 9.35331 27.2185 8.89853 27.0421C8.29705 26.8083 7.86728 26.5291 7.41611 26.078C6.96493 25.6268 6.68572 25.1982 6.4515 24.5963C6.27503 24.1424 6.06478 23.4603 6.00755 22.2034C5.9458 20.8445 5.93343 20.4364 5.93343 16.9939C5.93343 13.5515 5.9458 13.1456 6.00755 11.7866C6.06504 10.5298 6.27503 9.84764 6.4515 9.39324C6.68521 8.79164 6.96493 8.36199 7.41623 7.91082C7.86754 7.45965 8.29705 7.18031 8.89866 6.94621C9.35305 6.76897 10.0355 6.5595 11.2923 6.50175C12.4815 6.44799 12.9423 6.43188 15.3447 6.42917V6.43239ZM23.3822 8.57275C22.5282 8.57275 21.8353 9.26498 21.8353 10.1191C21.8353 10.9731 22.5282 11.666 23.3822 11.666C24.2362 11.666 24.9291 10.9731 24.9291 10.1191C24.9291 9.26511 24.2362 8.57224 23.3822 8.57224V8.57275ZM16.5012 10.3801C12.8454 10.3801 9.88131 13.3442 9.88131 17.0001C9.88131 20.656 12.8454 23.6187 16.5012 23.6187C20.1571 23.6187 23.1201 20.656 23.1201 17.0001C23.1201 13.3443 20.1568 10.3801 16.5009 10.3801H16.5012ZM16.5012 12.7032C18.8742 12.7032 20.7981 14.6268 20.7981 17.0001C20.7981 19.3732 18.8742 21.2971 16.5012 21.2971C14.1281 21.2971 12.2043 19.3732 12.2043 17.0001C12.2043 14.6268 14.128 12.7032 16.5012 12.7032Z" fill="white"/>
<defs>
<radialGradient id="paint0_radial_163_1309" cx="0" cy="0" r="1" gradientUnits="userSpaceOnUse" gradientTransform="translate(8.76562 36.0416) rotate(-90) scale(32.7055 30.4187)">
<stop stop-color="#FFDD55"/>
<stop offset="0.1" stop-color="#FFDD55"/>
<stop offset="0.5" stop-color="#FF543E"/>
<stop offset="1" stop-color="#C837AB"/>
</radialGradient>
<radialGradient id="paint1_radial_163_1309" cx="0" cy="0" r="1" gradientUnits="userSpaceOnUse" gradientTransform="translate(-5.52763 2.87716) rotate(78.681) scale(14.6195 60.2621)">
<stop stop-color="#3771C8"/>
<stop offset="0.128" stop-color="#3771C8"/>
<stop offset="1" stop-color="#6600FF" stop-opacity="0"/>
</radialGradient>
</defs>
</svg>
