<svg width="33" height="34" viewBox="0 0 33 34" fill="none" xmlns="http://www.w3.org/2000/svg">
<g clip-path="url(#clip0_163_1307)">
<rect y="0.5" width="33" height="33" rx="4" fill="#EDEDED"/>
<path d="M30.4219 0.5H2.57812C1.15371 0.5 0 1.65371 0 3.07812V30.9219C0 32.3463 1.15371 33.5 2.57812 33.5H30.4219C31.8463 33.5 33 32.3463 33 30.9219V3.07812C33 1.65371 31.8463 0.5 30.4219 0.5ZM11.8852 23.9029H8.66895V13.6098H11.8852V23.9029ZM10.19 12.3207H10.1643C8.99766 12.3207 8.24356 11.5344 8.24356 10.5354C8.24356 9.51699 9.02344 8.75 10.2094 8.75C11.3953 8.75 12.1236 9.51699 12.1494 10.5354C12.1559 11.5279 11.4018 12.3207 10.19 12.3207ZM24.75 23.9029H21.102V18.5791C21.102 17.1869 20.5348 16.233 19.2779 16.233C18.3176 16.233 17.7826 16.8775 17.5377 17.4963C17.4475 17.7154 17.4604 18.0248 17.4604 18.3406V23.9029H13.8445C13.8445 23.9029 13.8896 14.467 13.8445 13.6098H17.4604V15.2275C17.673 14.5186 18.8268 13.5131 20.6701 13.5131C22.9582 13.5131 24.75 14.9955 24.75 18.1795V23.9029Z" fill="#0088D1"/>
</g>
<defs>
<clipPath id="clip0_163_1307">
<rect y="0.5" width="33" height="33" rx="4" fill="white"/>
</clipPath>
</defs>
</svg>
