<svg width="86" height="86" viewBox="0 0 86 86" fill="none" xmlns="http://www.w3.org/2000/svg">
<path d="M48.375 5.375C45.5239 5.375 42.7896 6.50759 40.7736 8.5236C38.7576 10.5396 37.625 13.2739 37.625 16.125H29.5625C27.4242 16.125 25.3735 16.9744 23.8615 18.4865C22.3494 19.9985 21.5 22.0492 21.5 24.1875V32.25C18.6489 32.25 15.9146 33.3826 13.8986 35.3986C11.8826 37.4146 10.75 40.1489 10.75 43C10.75 45.8511 11.8826 48.5854 13.8986 50.6014C15.9146 52.6174 18.6489 53.75 21.5 53.75V61.8125C21.5 63.9508 22.3494 66.0015 23.8615 67.5135C25.3735 69.0256 27.4242 69.875 29.5625 69.875H37.625C37.625 72.7261 38.7576 75.4604 40.7736 77.4764C42.7896 79.4924 45.5239 80.625 48.375 80.625C51.2261 80.625 53.9604 79.4924 55.9764 77.4764C57.9924 75.4604 59.125 72.7261 59.125 69.875H67.1875C69.3258 69.875 71.3765 69.0256 72.8885 67.5135C74.4006 66.0015 75.25 63.9508 75.25 61.8125V48.375H69.875C68.4495 48.375 67.0823 47.8087 66.0743 46.8007C65.0663 45.7927 64.5 44.4255 64.5 43C64.5 41.5745 65.0663 40.2073 66.0743 39.1993C67.0823 38.1913 68.4495 37.625 69.875 37.625H75.25V24.1875C75.25 22.0492 74.4006 19.9985 72.8885 18.4865C71.3765 16.9744 69.3258 16.125 67.1875 16.125H59.125C59.125 13.2739 57.9924 10.5396 55.9764 8.5236C53.9604 6.50759 51.2261 5.375 48.375 5.375Z" fill="url(#paint0_linear_40_3678)"/>
<defs>
<linearGradient id="paint0_linear_40_3678" x1="79.1276" y1="84.3243" x2="-0.214567" y2="30.4938" gradientUnits="userSpaceOnUse">
<stop stop-color="#0D5796"/>
<stop offset="1" stop-color="#03A6DD"/>
</linearGradient>
</defs>
</svg>
